<svg xmlns="http://www.w3.org/2000/svg" xmlns:xlink="http://www.w3.org/1999/xlink" width="640" zoomAndPan="magnify" viewBox="0 0 480 195.000001" height="260" preserveAspectRatio="xMidYMid meet" version="1.0"><defs><g/><clipPath id="15964661d6"><path d="M 92 79 L 167.21875 79 L 167.21875 170.417969 L 92 170.417969 Z M 92 79 " clip-rule="nonzero"/></clipPath><clipPath id="4fd7fcc67b"><path d="M 24.699219 23.421875 L 140 23.421875 L 140 170.417969 L 24.699219 170.417969 Z M 24.699219 23.421875 " clip-rule="nonzero"/></clipPath><clipPath id="a13e221d45"><path d="M 71 53 L 143 53 L 143 170.417969 L 71 170.417969 Z M 71 53 " clip-rule="nonzero"/></clipPath></defs><g clip-path="url(#15964661d6)"><path fill="#ffffff" d="M 135.84375 116.203125 L 130.445312 126.195312 L 150.484375 160.898438 L 109.046875 160.898438 L 143.574219 96.640625 L 147.816406 99.035156 L 147.632812 79.148438 L 130.5 89.25 L 135.15625 91.882812 L 92.839844 170.570312 L 167.230469 170.570312 L 135.84375 116.203125 " fill-opacity="1" fill-rule="nonzero"/></g><g clip-path="url(#4fd7fcc67b)"><path fill="#ffffff" d="M 139.160156 43.304688 L 138.976562 23.417969 L 121.84375 33.519531 L 126.492188 36.144531 L 56.042969 160.898438 L 41.472656 160.898438 L 95.976562 66.492188 L 101.382812 75.851562 L 106.902344 66.078125 L 95.976562 47.15625 L 24.726562 170.570312 L 61.6875 170.570312 L 134.910156 40.902344 L 139.160156 43.304688 " fill-opacity="1" fill-rule="nonzero"/></g><g clip-path="url(#a13e221d45)"><path fill="#ffffff" d="M 142.464844 53.65625 L 125.332031 63.757812 L 129.984375 66.390625 L 71.859375 170.570312 L 82.878906 170.570312 L 138.40625 71.148438 L 142.648438 73.542969 L 142.464844 53.65625 " fill-opacity="1" fill-rule="nonzero"/></g><g fill="#ffffff" fill-opacity="1"><g transform="translate(181.411953, 91.395262)"><g><path d="M 18.953125 -4.578125 L 8.109375 -4.578125 L 6.3125 0 L -0.171875 0 L 10.53125 -24.8125 L 17.015625 -24.8125 L 27.46875 0 L 20.734375 0 Z M 17.109375 -9.359375 L 13.578125 -18.53125 L 9.953125 -9.359375 Z M 17.109375 -9.359375 "/></g></g></g><g fill="#ffffff" fill-opacity="1"><g transform="translate(211.498065, 91.395262)"><g><path d="M 14.109375 -25.015625 C 15.953125 -25.015625 17.765625 -24.632812 19.546875 -23.875 C 21.328125 -23.125 22.84375 -22.113281 24.09375 -20.84375 L 20.453125 -16.515625 C 19.648438 -17.503906 18.6875 -18.285156 17.5625 -18.859375 C 16.4375 -19.441406 15.316406 -19.734375 14.203125 -19.734375 C 12.242188 -19.734375 10.601562 -19.039062 9.28125 -17.65625 C 7.957031 -16.28125 7.296875 -14.578125 7.296875 -12.546875 C 7.296875 -10.460938 7.957031 -8.722656 9.28125 -7.328125 C 10.601562 -5.941406 12.242188 -5.25 14.203125 -5.25 C 15.242188 -5.25 16.328125 -5.503906 17.453125 -6.015625 C 18.578125 -6.535156 19.578125 -7.25 20.453125 -8.15625 L 24.140625 -4.25 C 22.785156 -2.882812 21.191406 -1.785156 19.359375 -0.953125 C 17.535156 -0.128906 15.710938 0.28125 13.890625 0.28125 C 10.160156 0.28125 7.050781 -0.929688 4.5625 -3.359375 C 2.082031 -5.796875 0.84375 -8.832031 0.84375 -12.46875 C 0.84375 -16.039062 2.109375 -19.023438 4.640625 -21.421875 C 7.171875 -23.816406 10.328125 -25.015625 14.109375 -25.015625 Z M 14.109375 -25.015625 "/></g></g></g><g fill="#ffffff" fill-opacity="1"><g transform="translate(238.82013, 91.395262)"><g><path d="M 14.109375 -25.015625 C 15.953125 -25.015625 17.765625 -24.632812 19.546875 -23.875 C 21.328125 -23.125 22.84375 -22.113281 24.09375 -20.84375 L 20.453125 -16.515625 C 19.648438 -17.503906 18.6875 -18.285156 17.5625 -18.859375 C 16.4375 -19.441406 15.316406 -19.734375 14.203125 -19.734375 C 12.242188 -19.734375 10.601562 -19.039062 9.28125 -17.65625 C 7.957031 -16.28125 7.296875 -14.578125 7.296875 -12.546875 C 7.296875 -10.460938 7.957031 -8.722656 9.28125 -7.328125 C 10.601562 -5.941406 12.242188 -5.25 14.203125 -5.25 C 15.242188 -5.25 16.328125 -5.503906 17.453125 -6.015625 C 18.578125 -6.535156 19.578125 -7.25 20.453125 -8.15625 L 24.140625 -4.25 C 22.785156 -2.882812 21.191406 -1.785156 19.359375 -0.953125 C 17.535156 -0.128906 15.710938 0.28125 13.890625 0.28125 C 10.160156 0.28125 7.050781 -0.929688 4.5625 -3.359375 C 2.082031 -5.796875 0.84375 -8.832031 0.84375 -12.46875 C 0.84375 -16.039062 2.109375 -19.023438 4.640625 -21.421875 C 7.171875 -23.816406 10.328125 -25.015625 14.109375 -25.015625 Z M 14.109375 -25.015625 "/></g></g></g><g fill="#ffffff" fill-opacity="1"><g transform="translate(266.142194, 91.395262)"><g><path d="M 21.90625 -19.84375 L 8.78125 -19.84375 L 8.78125 -14.921875 L 20.625 -14.921875 L 20.625 -9.953125 L 8.78125 -9.953125 L 8.78125 -4.96875 L 22.296875 -4.96875 L 22.296875 0 L 2.484375 0 L 2.484375 -24.8125 L 21.90625 -24.8125 Z M 21.90625 -19.84375 "/></g></g></g><g fill="#ffffff" fill-opacity="1"><g transform="translate(292.826414, 91.395262)"><g><path d="M 8.78125 -5.28125 L 19.3125 -5.28125 L 19.3125 0 L 2.484375 0 L 2.484375 -24.8125 L 8.78125 -24.8125 Z M 8.78125 -5.28125 "/></g></g></g><g fill="#ffffff" fill-opacity="1"><g transform="translate(315.47087, 91.395262)"><g><path d="M 21.90625 -19.84375 L 8.78125 -19.84375 L 8.78125 -14.921875 L 20.625 -14.921875 L 20.625 -9.953125 L 8.78125 -9.953125 L 8.78125 -4.96875 L 22.296875 -4.96875 L 22.296875 0 L 2.484375 0 L 2.484375 -24.8125 L 21.90625 -24.8125 Z M 21.90625 -19.84375 "/></g></g></g><g fill="#ffffff" fill-opacity="1"><g transform="translate(342.15509, 91.395262)"><g><path d="M 17.4375 0 L 13.75 -6.984375 L 8.78125 -6.984375 L 8.78125 0 L 2.484375 0 L 2.484375 -24.8125 L 13.578125 -24.8125 C 16.859375 -24.8125 19.394531 -24.0625 21.1875 -22.5625 C 22.988281 -21.0625 23.890625 -18.925781 23.890625 -16.15625 C 23.890625 -12.332031 22.390625 -9.675781 19.390625 -8.1875 L 24.59375 0 Z M 8.78125 -11.9375 L 13.578125 -11.9375 C 14.941406 -11.9375 16 -12.28125 16.75 -12.96875 C 17.507812 -13.65625 17.890625 -14.648438 17.890625 -15.953125 C 17.890625 -17.222656 17.507812 -18.1875 16.75 -18.84375 C 16 -19.507812 14.941406 -19.84375 13.578125 -19.84375 L 8.78125 -19.84375 Z M 8.78125 -11.9375 "/></g></g></g><g fill="#ffffff" fill-opacity="1"><g transform="translate(370.611122, 91.395262)"><g><path d="M 18.953125 -4.578125 L 8.109375 -4.578125 L 6.3125 0 L -0.171875 0 L 10.53125 -24.8125 L 17.015625 -24.8125 L 27.46875 0 L 20.734375 0 Z M 17.109375 -9.359375 L 13.578125 -18.53125 L 9.953125 -9.359375 Z M 17.109375 -9.359375 "/></g></g></g><g fill="#ffffff" fill-opacity="1"><g transform="translate(400.697235, 91.395262)"><g><path d="M 21.4375 -19.734375 L 13.96875 -19.734375 L 13.96875 0 L 7.65625 0 L 7.65625 -19.734375 L 0.25 -19.734375 L 0.25 -24.84375 L 21.4375 -24.84375 Z M 21.4375 -19.734375 "/></g></g></g><g fill="#ffffff" fill-opacity="1"><g transform="translate(425.148952, 91.395262)"><g><path d="M 21.90625 -19.84375 L 8.78125 -19.84375 L 8.78125 -14.921875 L 20.625 -14.921875 L 20.625 -9.953125 L 8.78125 -9.953125 L 8.78125 -4.96875 L 22.296875 -4.96875 L 22.296875 0 L 2.484375 0 L 2.484375 -24.8125 L 21.90625 -24.8125 Z M 21.90625 -19.84375 "/></g></g></g><g fill="#ffffff" fill-opacity="1"><g transform="translate(181.411953, 138.486349)"><g><path d="M 28.6875 0 L 22.5625 0 L 18.203125 -16.203125 L 13.796875 0 L 7.625 0 L -0.03125 -23.421875 L 6.328125 -23.421875 L 10.90625 -6.1875 L 15.390625 -23.421875 L 21.21875 -23.421875 L 25.796875 -6.1875 L 30.328125 -23.421875 L 36.40625 -23.421875 Z M 28.6875 0 "/></g></g></g><g fill="#ffffff" fill-opacity="1"><g transform="translate(225.944621, 138.486349)"><g><path d="M 8.296875 0 L 2.34375 0 L 2.34375 -23.421875 L 8.296875 -23.421875 Z M 8.296875 0 "/></g></g></g><g fill="#ffffff" fill-opacity="1"><g transform="translate(244.951944, 138.486349)"><g><path d="M 20.25 -18.640625 L 13.1875 -18.640625 L 13.1875 0 L 7.234375 0 L 7.234375 -18.640625 L 0.234375 -18.640625 L 0.234375 -23.46875 L 20.25 -23.46875 Z M 20.25 -18.640625 "/></g></g></g><g fill="#ffffff" fill-opacity="1"><g transform="translate(273.761275, 138.486349)"><g><path d="M 23.96875 0 L 18 0 L 18 -9.109375 L 8.296875 -9.109375 L 8.296875 0 L 2.34375 0 L 2.34375 -23.421875 L 8.296875 -23.421875 L 8.296875 -13.796875 L 18 -13.796875 L 18 -23.421875 L 23.96875 -23.421875 Z M 23.96875 0 "/></g></g></g><g fill="#ffffff" fill-opacity="1"><g transform="translate(308.425029, 138.486349)"><g/></g></g><g fill="#ffffff" fill-opacity="1"><g transform="translate(324.55531, 138.486349)"><g><path d="M 17.90625 -4.3125 L 7.671875 -4.3125 L 5.953125 0 L -0.171875 0 L 9.9375 -23.421875 L 16.0625 -23.421875 L 25.9375 0 L 19.578125 0 Z M 16.171875 -8.828125 L 12.8125 -17.5 L 9.40625 -8.828125 Z M 16.171875 -8.828125 "/></g></g></g><g fill="#ffffff" fill-opacity="1"><g transform="translate(358.683796, 138.486349)"><g><path d="M 8.296875 0 L 2.34375 0 L 2.34375 -23.421875 L 8.296875 -23.421875 Z M 8.296875 0 "/></g></g></g></svg>