<svg xmlns="http://www.w3.org/2000/svg" xmlns:xlink="http://www.w3.org/1999/xlink" width="500" zoomAndPan="magnify" viewBox="0 0 375 374.999991" height="500" preserveAspectRatio="xMidYMid meet" version="1.0">
  <defs>
    <clipPath id="e5f25ee91a">
      <path d="M 180 145 L 354.320312 145 L 354.320312 360 L 180 360 Z M 180 145 " clip-rule="nonzero"/>
    </clipPath>
    <clipPath id="41bb61ee36">
      <path d="M 20.570312 15.1875 L 289 15.1875 L 289 360 L 20.570312 360 Z M 20.570312 15.1875 " clip-rule="nonzero"/>
    </clipPath>
  </defs>
  <g clip-path="url(#e5f25ee91a)">
    <path fill="#ffffff" d="M 280.859375 232.46875 L 268.21875 255.871094 L 315.144531 337.136719 L 218.109375 337.136719 L 298.964844 186.652344 L 308.898438 192.265625 L 308.46875 145.691406 L 268.347656 169.347656 L 279.246094 175.511719 L 180.148438 359.78125 L 354.359375 359.78125 L 280.859375 232.46875 " fill-opacity="1" fill-rule="nonzero"/>
  </g>
  <g clip-path="url(#41bb61ee36)">
    <path fill="#ffffff" d="M 288.625 61.75 L 288.195312 15.175781 L 248.074219 38.835938 L 258.960938 44.984375 L 93.976562 337.136719 L 59.855469 337.136719 L 187.5 116.054688 L 200.15625 137.972656 L 213.082031 115.082031 L 187.5 70.769531 L 20.636719 359.78125 L 107.191406 359.78125 L 278.671875 56.125 L 288.625 61.75 " fill-opacity="1" fill-rule="nonzero"/>
  </g>
  <path fill="#ffffff" d="M 296.363281 85.992188 L 256.242188 109.652344 L 267.140625 115.808594 L 131.019531 359.78125 L 156.820312 359.78125 L 286.855469 126.953125 L 296.792969 132.5625 L 296.363281 85.992188 " fill-opacity="1" fill-rule="nonzero"/>
</svg>