<svg xmlns="http://www.w3.org/2000/svg" width="640" height="260" viewBox="0 0 480 195" fill="none">
  <g fill="white">
    <path d="M135.844 116.203l-5.399 9.992 20.04 34.703h-41.438l34.527-64.258 4.242 2.395-.183-19.887L130.5 89.25l4.656 2.633-42.316 78.687h74.39l-31.386-54.367z"/>
    <path d="M139.16 43.305l-.183-19.887-17.133 10.101 4.648 2.625-70.45 124.754H41.473l54.504-94.406 5.406 9.36 5.52-9.774-10.926-18.922L24.727 170.57h36.96L134.91 40.902l4.25 2.403z"/>
    <path d="M142.465 53.656l-17.133 10.102 4.652 2.633-58.125 104.18h11.02l55.527-99.423 4.242 2.395-.183-19.887z"/>
    <path d="M200.365 86.817l-10.844 0-1.797 4.578h-6.484l10.703-24.812h6.484l10.454 24.812h-6.734l-1.782-4.578zm-1.844-4.781l-3.531-9.172-3.625 9.172h7.156zM225.607 66.38c1.844 0 3.657.382 5.438 1.14 1.781.75 3.297 1.762 4.547 3.032l-3.641 4.328c-.804-.988-1.766-1.77-2.89-2.344-1.125-.582-2.246-.875-3.36-.875-1.96 0-3.601.695-4.922 2.078-1.324 1.375-1.984 3.078-1.984 5.11 0 2.086.66 3.824 1.984 5.219 1.32 1.386 2.961 2.078 4.922 2.078 1.04 0 2.125-.254 3.25-.766 1.125-.52 2.125-1.234 3-2.14l3.688 3.906c-1.355 1.367-2.95 2.465-4.782 3.297-1.824.824-3.648 1.234-5.469 1.234-3.73 0-6.84-1.21-9.328-3.64-2.48-2.438-3.719-5.473-3.719-9.11 0-3.57 1.266-6.555 3.797-8.953 2.531-2.395 5.688-3.594 9.469-3.594zM252.93 66.38c1.843 0 3.656.382 5.437 1.14 1.781.75 3.297 1.762 4.547 3.032l-3.641 4.328c-.804-.988-1.766-1.77-2.89-2.344-1.125-.582-2.246-.875-3.36-.875-1.96 0-3.601.695-4.922 2.078-1.324 1.375-1.984 3.078-1.984 5.11 0 2.086.66 3.824 1.984 5.219 1.32 1.386 2.961 2.078 4.922 2.078 1.04 0 2.125-.254 3.25-.766 1.125-.52 2.125-1.234 3-2.14l3.688 3.906c-1.355 1.367-2.95 2.465-4.782 3.297-1.824.824-3.648 1.234-5.469 1.234-3.73 0-6.84-1.21-9.328-3.64-2.48-2.438-3.719-5.473-3.719-9.11 0-3.57 1.266-6.555 3.797-8.953 2.531-2.395 5.688-3.594 9.469-3.594z"/>
    <!-- ... rest of the paths with fill="white" ... -->
  </g>
</svg> 